<svg width="46" height="47" viewBox="0 0 46 47" fill="none" xmlns="http://www.w3.org/2000/svg">
<g clip-path="url(#clip0_7286_538)">
<path d="M20.9867 47C20.8521 46.95 20.7147 46.9041 20.5828 46.8596C20.2577 46.7498 19.9504 46.6469 19.6824 46.4927C18.3673 45.7337 17.6859 44.5551 17.656 42.9914C17.6342 41.8683 17.5309 41.7112 16.5421 41.3053L16.4361 41.2622C15.9165 41.0496 15.3807 40.83 14.8856 40.5687C14.6966 40.4686 14.5361 40.4227 14.3784 40.4227C14.0492 40.4227 13.833 40.6243 13.6997 40.7772C12.9422 41.6403 12.1751 42.1143 11.287 42.2686C11.015 42.3158 10.7471 42.3409 10.4914 42.3409C9.56116 42.3409 8.74106 42.0212 8.05289 41.3915C7.16072 40.5756 6.31207 39.7097 5.53005 38.8201C4.19587 37.3037 4.24891 34.9866 5.64838 33.5466C6.24134 32.9364 6.69695 32.2192 6.01014 31.1239C5.79118 30.775 5.65926 30.3497 5.52053 29.9007C5.49605 29.8229 5.47157 29.7437 5.44709 29.6658C5.29885 29.2002 5.01597 28.9848 4.52908 28.9695L4.30604 28.9625C3.78651 28.9486 3.2493 28.9333 2.79097 28.7888C1.18343 28.2773 0.250451 27.1459 0.091329 25.5182C-0.0460331 24.1088 -0.0337929 22.6994 0.12397 21.3261C0.338853 19.4663 1.89608 18.0792 3.82731 18.0277C5.05269 17.9958 5.20637 17.8874 5.65382 16.742L5.70278 16.6155C5.89046 16.1346 6.08358 15.637 6.32159 15.1867C6.64391 14.5751 6.35151 14.2012 6.10398 13.9718C5.29477 13.224 4.84052 12.479 4.67596 11.627C4.41212 10.2593 4.72492 9.07086 5.60622 8.09511C6.33927 7.28337 7.11312 6.4911 7.90601 5.74052C8.65266 5.03442 9.59788 4.64523 10.5676 4.64523C11.5373 4.64523 12.507 5.05249 13.2346 5.79195C13.5923 6.15473 13.9962 6.48971 14.5307 6.48971C14.8312 6.48971 15.144 6.38129 15.4854 6.15612C15.8703 5.90315 16.3585 5.74747 16.8318 5.59736L16.991 5.54593C17.467 5.39303 17.6832 5.06917 17.6546 4.55767C17.5921 3.46516 17.7743 2.62146 18.2313 1.90285C19.0065 0.692198 20.0823 0.0597681 21.4328 0.0264092H21.4695C21.9809 0.0125096 22.5099 0 23.0281 0C23.8808 0 24.5717 0.0361389 25.2014 0.113976C26.9653 0.33081 28.3716 1.98208 28.3363 3.79458C28.3131 4.98021 28.7524 5.5918 29.8051 5.83921C30.2158 5.93511 30.6333 6.16168 31.0359 6.38129L31.1651 6.45079C31.346 6.54809 31.5024 6.59395 31.6547 6.59395C32.0137 6.59395 32.2422 6.33264 32.317 6.24646C33.0718 5.38191 33.8362 4.90377 34.7243 4.74531C35.0044 4.69527 35.2805 4.66886 35.543 4.66886C36.4665 4.66886 37.2797 4.98438 37.9598 5.60709C38.8873 6.45635 39.7455 7.33202 40.5125 8.21047C41.8331 9.72414 41.7461 12.0342 40.3126 13.584C39.5238 14.4361 39.4925 14.6126 39.9427 15.6857L39.9549 15.7148C40.0664 15.9803 40.1698 16.2569 40.2704 16.5252C40.3901 16.8421 40.5139 17.1715 40.6526 17.4912C40.7655 17.7525 41.0769 17.9819 41.3612 18.0124C41.5801 18.0361 41.795 18.0361 42.0031 18.0375C42.2357 18.0375 42.456 18.0375 42.6627 18.0708C44.2961 18.3252 45.5432 19.5247 45.9186 21.201C45.939 21.2941 45.973 21.3761 45.9988 21.4401V25.5822C45.9988 25.5822 45.9934 25.5961 45.9907 25.603C45.9635 25.6767 45.9336 25.7601 45.9104 25.8518C45.614 27.0791 44.9475 27.9631 43.8731 28.5525C43.325 28.8527 42.7035 28.9931 41.9201 28.9931C41.7923 28.9931 41.6577 28.9889 41.5176 28.982C41.489 28.9806 41.4632 28.9792 41.4373 28.9792C41.0076 28.9792 40.7301 29.1946 40.59 29.6394C40.4513 30.0814 40.2704 30.5262 40.0964 30.9557L39.974 31.2573C39.94 31.3407 39.8869 31.438 39.8298 31.5395C39.6802 31.8064 39.5115 32.1094 39.5659 32.4513C39.6217 32.803 39.8896 33.0434 40.1263 33.2547C40.2052 33.3256 40.28 33.3937 40.3384 33.4563C41.8032 35.0575 41.8195 37.3745 40.3765 38.9647C39.653 39.7625 38.8887 40.5423 38.1066 41.2831C37.3641 41.9864 36.5005 42.3436 35.5376 42.3436C35.2288 42.3436 34.9052 42.3075 34.5747 42.2352C33.775 42.0601 33.0759 41.625 32.4952 40.944C32.317 40.7341 32.0314 40.4547 31.6166 40.4547C31.4099 40.4547 31.2018 40.52 30.9584 40.6618C30.5599 40.8925 30.1233 41.0593 29.6596 41.2358C29.5521 41.2762 29.4447 41.3179 29.3372 41.3596L29.2951 41.3762C28.4723 41.6973 28.3607 41.8683 28.3757 42.7801C28.4015 44.3605 27.7909 45.5656 26.5601 46.362C26.2568 46.5594 25.895 46.6873 25.5128 46.8249C25.3564 46.8805 25.196 46.9388 25.0368 47.0014H20.984L20.9867 47ZM14.037 38.0278C14.2138 38.0278 14.4096 38.0918 14.6381 38.2238C15.9437 38.9813 17.3323 39.5693 18.7644 39.9724C19.3356 40.1336 19.5723 40.4533 19.5804 41.076C19.5845 41.3665 19.5832 41.657 19.5804 41.9475C19.5791 42.3047 19.5777 42.6744 19.5859 43.0414C19.6104 44.1603 20.4236 44.9957 21.5198 45.0276C21.7089 45.0332 21.8993 45.0346 22.0897 45.0346C22.2366 45.0346 22.3848 45.0346 22.5317 45.0332C22.6772 45.0332 22.8227 45.0318 22.9682 45.0318H22.9941C23.1451 45.0318 23.2974 45.0318 23.4483 45.0332C23.6007 45.0332 23.753 45.0346 23.9067 45.0346C24.093 45.0346 24.2779 45.0346 24.4643 45.029C25.6135 45.0068 26.4295 44.17 26.4499 42.9941C26.4553 42.6494 26.454 42.3019 26.4526 41.9656C26.4526 41.6695 26.4499 41.3734 26.454 41.0774C26.4621 40.4533 26.6974 40.1336 27.2673 39.9738C28.7048 39.5707 30.0934 38.9813 31.3949 38.2238C31.6234 38.0904 31.8206 38.0264 31.9961 38.0264C32.1443 38.0264 32.3823 38.0667 32.7305 38.4115C32.9549 38.6338 33.1806 38.8674 33.3996 39.0911C33.5955 39.2941 33.7927 39.4956 33.9912 39.6944C34.4427 40.1461 34.9582 40.3852 35.4804 40.3852C36.0027 40.3852 36.5032 40.1517 36.9425 39.7083C37.647 39.0008 38.2821 38.3503 38.8859 37.722C39.74 36.8311 39.7482 35.6746 38.9063 34.7767C38.6738 34.5293 38.4344 34.2847 38.2018 34.0498C37.9978 33.8427 37.787 33.63 37.5858 33.4159C37.1628 32.9684 37.1138 32.6084 37.4049 32.0872C38.1556 30.7417 38.7377 29.3072 39.1335 27.8255C39.2803 27.2751 39.6054 27.0263 40.1861 27.018C40.3466 27.0152 40.5084 27.0152 40.6689 27.0152C40.8076 27.0152 41.368 27.018 41.5081 27.018C41.708 27.018 41.9079 27.018 42.1065 27.0124C43.2285 26.9902 44.0554 26.1451 44.0717 25.0039C44.0867 24.0032 44.0867 22.9941 44.0717 22.003C44.0554 20.8619 43.2271 20.0195 42.1051 19.9973C41.912 19.9931 41.7189 19.9931 41.5271 19.9931C41.3857 19.9931 40.8253 19.9959 40.6852 19.9959C40.5193 19.9959 40.352 19.9959 40.1861 19.9917C39.6054 19.982 39.2803 19.7318 39.1335 19.1814C38.7377 17.7025 38.1556 16.2681 37.4035 14.9198C37.1138 14.3986 37.1628 14.04 37.5858 13.5924C37.7802 13.3867 37.9788 13.1865 38.1774 12.9864C38.4303 12.7306 38.6901 12.4665 38.9403 12.1955C39.7387 11.3295 39.7291 10.1745 38.9172 9.32105C38.2902 8.66221 37.6334 7.99086 36.9071 7.26669C36.4869 6.84693 35.9918 6.62453 35.475 6.62453C34.9582 6.62453 34.4767 6.83998 34.0606 7.24862C33.8171 7.48631 33.5778 7.73372 33.3466 7.97279C33.1426 8.18406 32.9386 8.39395 32.7305 8.60105C32.3837 8.94437 32.1457 8.98468 31.9961 8.98468C31.8193 8.98468 31.6234 8.91935 31.3949 8.78731C30.0934 8.02839 28.7048 7.44044 27.2673 7.03874C26.6988 6.8789 26.4635 6.55921 26.4553 5.93372C26.4513 5.63766 26.4526 5.3416 26.454 5.04554C26.454 4.70917 26.4567 4.36168 26.4513 4.01836C26.4309 2.83551 25.6135 2.00015 24.4615 1.98625C23.9801 1.98069 23.4973 1.97791 23.0158 1.97791C22.5344 1.97791 22.0543 1.98069 21.5742 1.98625C20.4236 2.00015 19.6063 2.8369 19.5872 4.02114C19.5818 4.35751 19.5832 4.69666 19.5845 5.02469C19.5845 5.32909 19.5872 5.6321 19.5832 5.9365C19.575 6.5606 19.3384 6.88029 18.7685 7.04152C17.3337 7.44461 15.9465 8.03395 14.6422 8.79148C14.4151 8.92352 14.2192 8.98746 14.0438 8.98746C13.8942 8.98746 13.6535 8.94715 13.308 8.60244C13.1095 8.40507 12.915 8.20491 12.7205 8.00337C12.4798 7.75457 12.2309 7.49882 11.9766 7.25001C11.559 6.84276 11.0708 6.62731 10.5635 6.62731C10.0562 6.62731 9.55028 6.84971 9.13003 7.27086C8.49898 7.9019 7.85161 8.56352 7.15392 9.29047C6.29167 10.1898 6.29575 11.3601 7.16752 12.2719C7.37424 12.4874 7.58369 12.7014 7.79313 12.9141C8.00529 13.1295 8.2161 13.3436 8.42418 13.5618C8.88115 14.0413 8.92875 14.3958 8.61322 14.9643C7.88153 16.2778 7.31168 17.6816 6.91728 19.1397C6.75271 19.7485 6.44263 19.989 5.81022 19.9959C5.67558 19.9973 5.54229 19.9973 5.40765 19.9973C5.27301 19.9973 4.70316 19.9945 4.56172 19.9945C4.35228 19.9945 4.14283 19.9945 3.93475 20.0001C2.81137 20.0223 1.98448 20.866 1.96816 22.0058C1.95456 22.9968 1.95456 24.0059 1.96816 25.0067C1.98312 26.1479 2.81001 26.9916 3.93339 27.0152C4.14827 27.0194 4.3618 27.0208 4.57668 27.0208C4.71812 27.0208 5.28253 27.018 5.42261 27.018C5.55181 27.018 5.68102 27.018 5.81022 27.0194C6.45079 27.0263 6.75135 27.257 6.91864 27.8742C7.3144 29.335 7.88425 30.7389 8.61322 32.0496C8.93011 32.6195 8.88251 32.9725 8.42554 33.4521C8.21474 33.6731 7.99985 33.8913 7.78497 34.1095C7.57825 34.3194 7.37152 34.5293 7.16888 34.742C6.29711 35.6538 6.29031 36.8241 7.15392 37.7234C7.85161 38.4504 8.49762 39.1106 9.13139 39.743C9.553 40.1642 10.048 40.3866 10.5662 40.3866C11.0844 40.3866 11.5631 40.1725 11.9793 39.7653C12.2377 39.5137 12.4906 39.2524 12.7354 39.0008C12.9258 38.8034 13.1176 38.6074 13.3121 38.4128C13.6575 38.0681 13.8969 38.0292 14.0465 38.0292L14.037 38.0278Z" fill="#3294FF"/>
<path d="M23.0101 33.4853C20.3989 33.4853 17.9441 32.4429 16.0999 30.5497C14.2557 28.658 13.2452 26.1464 13.2547 23.479C13.2737 17.9901 17.6503 13.5242 23.0088 13.5242H23.0319C28.4094 13.5367 32.7819 18.0151 32.7805 23.5054C32.7792 28.9999 28.4026 33.4756 23.0265 33.4839H23.0115L23.0101 33.4853ZM23.0156 15.4937C18.6975 15.4937 15.1819 19.0854 15.1791 23.5013C15.1778 25.6446 15.9911 27.6572 17.4694 29.1709C18.9478 30.6846 20.9157 31.5172 23.0129 31.5185C27.3364 31.5185 30.852 27.9269 30.8547 23.5096C30.8575 19.0923 27.3432 15.4965 23.0224 15.4937H23.0169H23.0156Z" fill="#00CCFF"/>
</g>
<defs>
<clipPath id="clip0_7286_538">
<rect width="46" height="47" fill="white"/>
</clipPath>
</defs>
</svg>
