<svg width="47" height="46" viewBox="0 0 47 46" fill="none" xmlns="http://www.w3.org/2000/svg">
<path d="M18.9763 4.95276C19.4151 5.11568 19.8139 5.22805 20.1825 5.40643C21.8839 6.23372 22.9718 8.12706 22.8233 9.96844C22.6569 12.036 21.3888 13.7102 19.5003 14.2538C19.0533 14.383 18.9584 14.581 18.9681 15.0066C18.9928 16.1274 18.9818 17.2497 18.9749 18.3705C18.9708 19.1023 18.6957 19.386 17.9764 19.3916C16.5694 19.4001 15.1637 19.3959 13.7567 19.3944C12.7651 19.3944 12.5986 19.2413 12.4859 18.2441C12.3387 16.9435 11.4103 15.869 10.189 15.5839C8.92634 15.2889 7.59084 15.8226 6.94715 16.9632C6.70784 17.3887 6.57305 17.9014 6.49878 18.3916C6.38875 19.1234 6.17556 19.3888 5.44936 19.393C3.97356 19.4015 2.49914 19.4015 1.02335 19.393C0.28064 19.3888 0.00281119 19.0953 0.00281119 18.3354C0.0014358 13.4812 -0.00406576 8.62709 0.00556197 3.77433C0.00968814 1.62676 1.58176 0.0129178 3.68611 0.00729953C8.4367 -0.00534151 13.1887 0.00168129 17.9406 0.00449041C18.6861 0.00449041 18.9708 0.291021 18.9749 1.04667C18.9818 2.16751 18.9763 3.28976 18.9763 4.4106C18.9763 4.60021 18.9763 4.78983 18.9763 4.95276ZM17.3286 17.7076C17.3286 16.4702 17.3286 15.317 17.3286 14.1639C17.3286 13.0416 17.4386 12.911 18.5128 12.7537C20.1014 12.5205 21.1824 11.2101 21.1329 9.57938C21.0848 8.00627 19.8882 6.74638 18.3271 6.62418C17.583 6.5666 17.3341 6.29833 17.33 5.52301C17.3245 4.43728 17.33 3.35015 17.3272 2.26443C17.3272 2.08043 17.3093 1.89784 17.297 1.68715H16.7798C12.4748 1.68715 8.1685 1.68715 3.86353 1.68715C2.43588 1.68715 1.65053 2.5018 1.65053 3.97659C1.65053 8.35741 1.65053 12.7368 1.65053 17.1177C1.65053 17.3045 1.65053 17.4913 1.65053 17.7118C2.45651 17.7118 3.19234 17.7118 3.92955 17.7118C4.52647 17.7118 4.92717 17.4388 5.13164 16.8929C5.19353 16.73 5.26093 16.5685 5.33932 16.414C6.20032 14.706 7.9897 13.6793 9.82172 13.8394C11.8147 14.0136 13.3881 15.303 13.9837 17.223C14.04 17.4042 14.2078 17.6823 14.333 17.6879C15.3068 17.7272 16.2819 17.709 17.33 17.709L17.3286 17.7076Z" fill="#00CCFF"/>
<path d="M23.9416 26.0015H27.1614C27.1614 24.9593 27.1614 23.948 27.1614 22.9367C27.1614 21.8861 27.2605 21.7695 28.2576 21.6277C29.8544 21.4001 31.0043 20.0756 30.9685 18.5067C30.9314 16.8845 29.7403 15.6176 28.1132 15.4687C27.398 15.4027 27.1669 15.1653 27.1628 14.4461C27.1559 12.9208 27.1559 11.3968 27.1628 9.8715C27.1656 9.15236 27.4571 8.85178 28.1723 8.85038C32.9257 8.84476 37.679 8.82931 42.431 8.8574C44.6151 8.87004 46.1322 10.4825 46.1322 12.7143C46.1363 22.337 46.1363 31.9582 46.1322 41.5809C46.1322 43.8267 44.567 45.4209 42.3636 45.4223C32.7716 45.4279 23.1797 45.4279 13.5877 45.4223C11.3871 45.4223 9.81914 43.8352 9.81226 41.5823C9.79713 36.7632 9.80676 31.9428 9.80951 27.1237C9.80951 26.3273 10.0873 26.0408 10.8617 26.0366C12.1298 26.0296 13.3993 26.0352 14.6536 26.0352C15.7374 23.2584 17.2009 22.0518 19.3987 22.0996C21.5595 22.1474 23.0201 23.396 23.9416 26.0015ZM27.1325 40.4291C26.1216 40.196 25.2496 39.7381 24.5537 38.9656C22.1949 36.3461 23.3323 32.1562 26.6869 31.1548C27.0473 31.0466 27.1862 30.916 27.1697 30.5242C27.138 29.7376 27.1449 28.9468 27.1669 28.1589C27.1766 27.8091 27.0555 27.7052 26.7241 27.7108C25.6265 27.7263 24.5289 27.7206 23.43 27.715C22.6226 27.7108 22.4081 27.5029 22.3283 26.6771C22.166 24.9972 20.869 23.7668 19.2804 23.7865C17.6864 23.8061 16.4224 25.0506 16.2862 26.7346C16.2271 27.4608 15.9919 27.7052 15.2863 27.7136C14.3772 27.7263 13.468 27.7164 12.5589 27.7178C12.2068 27.7178 11.8547 27.7178 11.4572 27.7178V28.3204C11.4572 32.683 11.4572 37.0455 11.4572 41.4095C11.4572 42.9419 12.244 43.7425 13.7418 43.7425C18.0137 43.7425 22.2843 43.7425 26.5563 43.7425C26.7392 43.7425 26.9221 43.7425 27.1339 43.7425V40.4291H27.1325ZM28.827 26.0352C30.0718 26.0352 31.2697 26.0338 32.4663 26.0352C33.3452 26.0366 33.5446 26.222 33.6436 27.1153C33.8279 28.7656 35.1291 29.9623 36.6984 29.9216C38.2938 29.8809 39.5234 28.6659 39.6527 27.0029C39.7064 26.3077 39.9746 26.0422 40.6705 26.0366C41.7516 26.0267 42.8312 26.0338 43.9123 26.0338C44.0938 26.0338 44.2754 26.0338 44.4872 26.0338V25.3807C44.4872 21.2288 44.4872 17.0769 44.4872 12.925C44.4872 11.3168 43.728 10.533 42.1614 10.5316C37.9087 10.5302 33.6546 10.5316 29.4019 10.5316C29.219 10.5316 29.0375 10.5316 28.8353 10.5316V13.8338C31.2188 14.6414 32.5543 16.1232 32.6217 18.216C32.7084 20.9226 31.3 22.5491 28.827 23.2921V26.0324V26.0352ZM44.4872 28.2558C43.446 28.2558 42.4695 28.2445 41.4957 28.2712C41.3816 28.274 41.2152 28.4791 41.1711 28.621C40.5096 30.7882 38.7656 32.1717 36.6599 32.1773C34.5294 32.1829 32.7895 30.8065 32.1183 28.5999C32.0771 28.4665 31.923 28.274 31.8185 28.2712C30.831 28.246 29.8421 28.2558 28.8091 28.2558C28.8091 29.3752 28.8119 30.423 28.8091 31.4708C28.8064 32.3248 28.6097 32.5467 27.7803 32.6464C26.1038 32.8487 24.9264 34.1423 24.9512 35.7575C24.9759 37.4107 26.1959 38.6762 27.8945 38.8082C28.5258 38.8574 28.8009 39.1524 28.8064 39.8336C28.816 40.9376 28.8078 42.0415 28.8105 43.1455C28.8105 43.3309 28.827 43.5163 28.8367 43.7425C29.0526 43.7425 29.2204 43.7425 29.3882 43.7425C33.6601 43.7425 37.9307 43.7425 42.2027 43.7425C43.7074 43.7425 44.4858 42.9489 44.4872 41.4165C44.4872 37.2281 44.4872 33.0411 44.4872 28.8527C44.4872 28.68 44.4872 28.5072 44.4872 28.2558Z" fill="#3294FF"/>
</svg>
