<svg width="37" height="46" viewBox="0 0 37 46" fill="none" xmlns="http://www.w3.org/2000/svg">
<g clip-path="url(#clip0_7286_541)">
<path d="M18.4869 46C18.1204 46 17.7312 45.903 17.4327 45.8185C13.0596 44.5799 9.43029 42.4718 6.64383 39.5535C3.85737 36.6352 1.83737 32.8235 0.63754 28.2255C0.206557 26.5647 -0.00236748 24.6935 2.02329e-05 22.5048C0.00479566 19.0988 0.0036018 15.6916 0.00240795 12.2857C0.00240795 10.645 0.00240795 9.00444 0.00240795 7.36383C0.00240795 6.59141 0.126569 6.41122 0.834526 6.16047L3.34759 5.26834C8.15764 3.55843 13.1336 1.79308 18.0332 0.0743439C18.1717 0.0252013 18.3341 0 18.5036 0C18.6731 0 18.8271 0.0252013 18.9597 0.0718238C24.3189 1.95058 29.7605 3.88353 35.0242 5.75346L36.2013 6.17181C36.8353 6.39736 36.9809 6.61283 36.9821 7.32477C36.9821 9.31189 36.9821 11.299 36.9821 13.2861V15.3275L36.9749 15.5795C36.9749 16.3746 36.9821 17.1835 36.9881 17.9648C37.0024 19.6709 37.0167 21.435 36.963 23.1651C36.7278 30.6448 33.7611 36.8154 28.1464 41.5079C25.4327 43.7747 22.2941 45.2767 18.8164 45.9723C18.7173 45.9924 18.6075 46.0025 18.4905 46.0025L18.4869 46ZM18.5 1.8334C18.3747 1.8334 18.2505 1.85356 18.1431 1.89136C15.5655 2.79987 12.9892 3.71216 10.4128 4.62444C7.6801 5.59218 4.94617 6.55865 2.21224 7.5226C1.82304 7.65995 1.66426 7.89306 1.66664 8.32652C1.67739 10.3212 1.67619 12.3512 1.675 14.3131V16.1566C1.675 16.7929 1.675 17.428 1.675 18.0643C1.67619 19.5109 1.67858 21.0066 1.67142 22.4771C1.66187 24.4163 1.82304 25.9964 2.17881 27.4518C4.2788 36.0379 9.44342 41.6187 17.5306 44.0393C17.9222 44.1565 18.2314 44.2082 18.5334 44.2082C18.7412 44.2082 18.9394 44.183 19.1387 44.1313C21.4644 43.5315 23.4163 42.6936 25.1068 41.5696C31.6241 37.2337 35.0457 31.0203 35.2761 23.1008C35.3728 19.7956 35.3525 16.4338 35.3322 13.1816C35.3227 11.575 35.3119 9.91421 35.3167 8.28116C35.3179 7.77965 35.0588 7.61836 34.7794 7.52008C32.3297 6.65567 29.8811 5.78875 27.4313 4.92308C24.5708 3.91125 21.7091 2.89815 18.8474 1.8901C18.7436 1.85356 18.623 1.8334 18.5 1.8334Z" fill="#3294FF"/>
<path d="M17.8123 29.0231C17.5903 29.0231 17.3336 28.8706 16.979 28.5266L15.8938 27.4757C14.146 25.7835 12.3994 24.0924 10.6492 22.4027C10.3185 22.0826 10.2063 21.7865 10.2886 21.4387C10.3722 21.0821 10.5823 20.8679 10.9309 20.781C10.9918 20.7659 11.0515 20.7583 11.1088 20.7583C11.3309 20.7583 11.5374 20.8679 11.8012 21.1237C13.2303 22.5098 14.6617 23.8934 16.0932 25.2769L17.1748 26.3228C17.2703 26.416 17.3682 26.508 17.4744 26.6088L17.8028 26.92L19.3237 25.3865C20.4113 24.2903 21.4858 23.2079 22.5591 22.1255C23.6192 21.0569 24.2651 20.4244 24.8907 19.812C25.5676 19.1492 26.2075 18.5242 27.3238 17.3939C27.5721 17.1419 27.7941 16.9756 28.0675 16.9756C28.095 16.9756 28.1236 16.9768 28.1535 16.9806C28.5081 17.0222 28.7456 17.215 28.8591 17.5514C28.9773 17.9043 28.9152 18.2117 28.6728 18.465C28.2836 18.8732 27.8777 19.2802 27.4861 19.6734L27.0969 20.064C25.3718 21.8054 24.0741 23.0932 22.8193 24.3382C21.5933 25.5554 20.3242 26.8154 18.6444 28.509C18.2934 28.8631 18.0368 29.0206 17.8123 29.0206V29.0231Z" fill="#00CCFF"/>
</g>
<defs>
<clipPath id="clip0_7286_541">
<rect width="37" height="46" fill="white"/>
</clipPath>
</defs>
</svg>
