<svg width="104" height="25" viewBox="0 0 104 25" fill="none" xmlns="http://www.w3.org/2000/svg">
<g clip-path="url(#clip0_7286_394)">
<mask id="mask0_7286_394" style="mask-type:luminance" maskUnits="userSpaceOnUse" x="0" y="0" width="104" height="25">
<path d="M104 0H0V25H104V0Z" fill="white"/>
</mask>
<g mask="url(#mask0_7286_394)">
<path fill-rule="evenodd" clip-rule="evenodd" d="M24.4245 23.4468H18.6575L16.8933 19.1551H7.2817L5.67572 23.4468H0L8.66869 1.7559H14.8798L24.4245 23.4468ZM11.8503 6.93762L8.69912 15.3672H15.3177L11.8503 6.93762ZM45.3753 1.7559H50.0411V23.4468H44.6818V9.89685L38.8844 16.7056H38.0631L32.2658 9.89685V23.4468H26.9064V1.7559H31.5723L38.4768 9.80476L45.3753 1.7559ZM63.6191 1.7559C71.4666 1.7559 75.4997 6.6859 75.4997 12.6351C75.4997 18.8666 71.5882 23.4468 63.0168 23.4468H54.1292V1.7559H63.6191ZM59.4886 19.4684H62.9865C68.3762 19.4684 69.9822 15.7785 69.9822 12.5982C69.9822 8.87771 67.999 5.72815 62.9196 5.72815H59.4824L59.4886 19.4684ZM97.1502 6.82097H86.1394L79.4478 0.0306975L104 0V24.8159L97.1502 17.8721V6.82097ZM86.1334 18.0869L86.1638 8.06115L79.1923 15.0971V25H89.2784L96.1282 18.0869H86.1334Z" fill="#9AA1FF" fill-opacity="0.5"/>
</g>
</g>
<defs>
<clipPath id="clip0_7286_394">
<rect width="104" height="25" fill="white"/>
</clipPath>
</defs>
</svg>
