<svg width="156" height="49" viewBox="0 0 156 49" fill="none" xmlns="http://www.w3.org/2000/svg">
<mask id="mask0_7286_472" style="mask-type:luminance" maskUnits="userSpaceOnUse" x="0" y="0" width="156" height="49">
<path d="M156 0H0V49H156V0Z" fill="white"/>
</mask>
<g mask="url(#mask0_7286_472)">
<mask id="mask1_7286_472" style="mask-type:luminance" maskUnits="userSpaceOnUse" x="0" y="0" width="156" height="49">
<path d="M156 0H0V49H156V0Z" fill="white"/>
</mask>
<g mask="url(#mask1_7286_472)">
<path d="M82.1973 12.3128C82.1973 14.0802 80.7827 15.5041 79.0271 15.5041C77.2715 15.5041 75.857 14.0802 75.857 12.3128C75.857 10.5455 77.2216 9.12155 79.0271 9.12155C80.8328 9.1718 82.1973 10.5957 82.1973 12.3128ZM69.1426 18.7373V19.5246C69.1426 19.5246 67.6366 17.5646 64.4166 17.5646C59.1081 17.5646 54.9645 21.6355 54.9645 27.2724C54.9645 32.8676 59.0582 36.9803 64.4166 36.9803C67.6781 36.9803 69.1426 34.9701 69.1426 34.9701V35.8076C69.1426 36.2014 69.4337 36.4946 69.8249 36.4946H73.7688V18.0504H69.8249C69.4337 18.0504 69.1426 18.3938 69.1426 18.7373ZM69.1426 30.5558C68.4104 31.6364 66.9543 32.5662 65.1987 32.5662C62.0785 32.5662 59.6905 30.6062 59.6905 27.2642C59.6905 23.9304 62.0785 21.9704 65.1987 21.9704C66.9044 21.9704 68.4603 22.9504 69.1426 23.9806V30.5558ZM76.6891 18.0504H81.3652V36.4946H76.6891V18.0504ZM146.556 17.5562C143.344 17.5562 141.83 19.5162 141.83 19.5162V9.1718H137.154V36.4946H141.098C141.489 36.4946 141.78 36.151 141.78 35.8076V34.9786C141.78 34.9786 143.294 36.9887 146.506 36.9887C151.814 36.9887 155.958 32.8676 155.958 27.2808C155.958 21.6772 151.823 17.5562 146.556 17.5562ZM145.782 32.5158C143.977 32.5158 142.57 31.5862 141.838 30.5056V23.9304C142.57 22.9504 144.126 21.9202 145.782 21.9202C148.902 21.9202 151.29 23.8802 151.29 27.2138C151.282 30.5558 148.902 32.5158 145.782 32.5158ZM134.716 25.5555V36.5448H130.04V26.0915C130.04 23.051 129.066 21.8281 126.437 21.8281C125.023 21.8281 123.566 22.5651 122.635 23.6456V36.4946H117.958V18.0504H121.661C122.052 18.0504 122.343 18.3938 122.343 18.7373V19.5246C123.708 18.1007 125.514 17.5646 127.311 17.5646C129.358 17.5646 131.063 18.1509 132.428 19.332C134.084 20.6972 134.716 22.4645 134.716 25.5555ZM106.609 17.5562C103.398 17.5562 101.883 19.5162 101.883 19.5162V9.1718H97.2074V36.4946H101.151C101.542 36.4946 101.834 36.151 101.834 35.8076V34.9786C101.834 34.9786 103.348 36.9887 106.56 36.9887C111.868 36.9887 116.012 32.8676 116.012 27.2808C116.062 21.6772 111.918 17.5562 106.609 17.5562ZM105.827 32.5158C104.022 32.5158 102.616 31.5862 101.883 30.5056V23.9304C102.616 22.9504 104.172 21.9202 105.827 21.9202C108.948 21.9202 111.336 23.8802 111.336 27.2138C111.336 30.5558 108.948 32.5158 105.827 32.5158ZM93.1553 17.5562C94.5698 17.5562 95.302 17.7992 95.302 17.7992V22.1631C95.302 22.1631 91.4081 20.8397 88.9702 23.6372V36.5364H84.2941V18.0504H88.238C88.6289 18.0504 88.9203 18.3938 88.9203 18.7373V19.5246C89.7939 18.4944 91.6992 17.5562 93.1553 17.5562ZM44.5806 34.8276C44.3394 34.2414 44.0896 33.6048 43.8484 33.0603C43.4574 32.1809 43.0662 31.3433 42.7252 30.5558L42.6752 30.5056C39.3138 23.1515 35.711 15.6968 31.9085 8.33419L31.7587 8.04102C31.3594 7.27881 30.9684 6.5082 30.5938 5.73761C30.103 4.85812 29.6204 3.92 28.8382 3.04051C27.2907 1.08051 25.0441 0 22.6561 0C20.2183 0 18.03 1.08051 16.4242 2.94C15.692 3.81949 15.1595 4.75761 14.6686 5.6371C14.2858 6.40769 13.9031 7.17828 13.5037 7.94051L13.3539 8.23367C9.60142 15.5879 5.94876 23.0425 2.58729 30.4051L2.53737 30.5056C2.19624 31.293 1.80517 32.1222 1.41411 33.0101C1.17282 33.5462 0.931525 34.1409 0.681914 34.7775C0.0495595 36.595 -0.150131 38.3121 0.0994822 40.0795C0.63199 43.7566 3.06988 46.8473 6.43135 48.2211C7.69604 48.7572 9.01067 49.0084 10.3752 49.0084C10.7663 49.0084 11.2489 48.9581 11.6399 48.9079C13.2458 48.7152 14.9015 48.1707 16.5157 47.2411C18.5126 46.1102 20.4097 44.4938 22.5563 42.14C24.7031 44.4938 26.6499 46.1102 28.597 47.2411C30.2028 48.1707 31.8586 48.7152 33.4728 48.9079C33.8638 48.9581 34.3548 49.0084 34.7376 49.0084C36.102 49.0084 37.4666 48.7654 38.6814 48.2211C42.0928 46.8473 44.4807 43.7062 45.0133 40.0795C45.4126 38.3541 45.213 36.6369 44.5806 34.8276ZM22.6062 37.3741C19.977 34.0403 18.2713 30.8994 17.6889 28.2524C17.4476 27.1217 17.3977 26.1417 17.5391 25.2622C17.639 24.4749 17.9302 23.7881 18.3213 23.2017C19.2448 21.8783 20.8091 21.0406 22.6062 21.0406C24.4117 21.0406 26.0178 21.8281 26.8914 23.2017C27.2823 23.7881 27.5737 24.4749 27.6735 25.2622C27.8233 26.1417 27.7733 27.1719 27.5237 28.2524C26.9495 30.849 25.2438 33.9901 22.6062 37.3741ZM42.0512 39.6775C41.71 42.2237 40.0043 44.435 37.6164 45.415C36.4432 45.9008 35.1785 46.0516 33.9137 45.9008C32.699 45.7501 31.4758 45.3648 30.2112 44.6276C28.4556 43.6476 26.6999 42.1233 24.6531 39.8701C27.8648 35.8998 29.8201 32.2645 30.5523 29.0315C30.8935 27.507 30.9435 26.1333 30.7937 24.8602C30.6022 23.6372 30.1613 22.5065 29.479 21.5265C27.9646 19.3152 25.4353 18.0421 22.6062 18.0421C19.7774 18.0421 17.2479 19.3655 15.7336 21.5265C15.0513 22.5065 14.6103 23.6372 14.419 24.8602C14.2276 26.1333 14.2692 27.5572 14.6602 29.0315C15.3925 32.2645 17.3894 35.9501 20.5511 39.9203C18.5542 42.1735 16.7487 43.698 14.9931 44.678C13.7284 45.415 12.5053 45.8087 11.2905 45.951C9.97584 46.1019 8.71113 45.9008 7.58787 45.4653C5.1999 44.4853 3.49422 42.2741 3.15309 39.7276C3.00333 38.5048 3.10317 37.2735 3.59406 35.8998C3.73551 35.4056 3.98513 34.9198 4.22642 34.3335C4.56756 33.5462 4.95863 32.7169 5.34968 31.8794L5.3996 31.7789C8.76107 24.4665 12.3638 17.0118 16.1163 9.75811L16.2661 9.46496C16.6572 8.72786 17.0482 7.9489 17.4393 7.2118C17.8303 6.42445 18.2713 5.68735 18.8038 5.05076C19.8273 3.87811 21.1919 3.23316 22.6979 3.23316C24.2121 3.23316 25.5683 3.86975 26.5918 5.05076C27.1244 5.68735 27.5653 6.42445 27.9562 7.2118C28.3474 7.9489 28.7384 8.73623 29.1296 9.46496L29.2793 9.75811C32.9736 17.0453 36.5347 24.4079 39.946 31.829V31.8794C40.3372 32.6667 40.6782 33.5462 41.0694 34.3335C41.3106 34.9198 41.5602 35.4141 41.7016 35.8998C42.1012 37.1814 42.2425 38.4042 42.0512 39.6775Z" fill="white"/>
</g>
</g>
</svg>
