<svg width="102" height="31" viewBox="0 0 102 31" fill="none" xmlns="http://www.w3.org/2000/svg">
<path d="M63.279 24.1688C57.3516 28.5378 48.7603 30.8688 41.3632 30.8688C30.9914 30.8688 21.6541 27.0326 14.5901 20.6524C14.0351 20.1506 14.5324 19.4669 15.1984 19.8576C22.8218 24.2932 32.2479 26.9616 41.9848 26.9616C48.5516 26.9616 55.7754 25.603 62.4177 22.7836C63.4211 22.3573 64.2603 23.4407 63.279 24.1688Z" fill="#9AA1FF" fill-opacity="0.5"/>
<path d="M65.743 21.3496C64.9882 20.3817 60.7347 20.8923 58.8255 21.1188C58.2439 21.1898 58.1551 20.6836 58.679 20.3196C62.0667 17.9353 67.6256 18.6235 68.2738 19.4227C68.9221 20.2263 68.1051 25.7985 64.9216 28.4581C64.4332 28.8665 63.967 28.649 64.1846 28.1073C64.8994 26.3224 66.5023 22.322 65.743 21.3496Z" fill="#9AA1FF" fill-opacity="0.5"/>
<path d="M58.9584 3.48749V1.16982C58.9584 0.819059 59.2248 0.58374 59.5445 0.58374H69.9208C70.2538 0.58374 70.5202 0.8235 70.5202 1.16982V3.15449C70.5157 3.48749 70.236 3.92261 69.7387 4.61081L64.3619 12.2876C66.3599 12.2387 68.4689 12.5362 70.2804 13.5574C70.6889 13.7883 70.7999 14.1257 70.831 14.4587V16.9318C70.831 17.2692 70.458 17.6644 70.0673 17.4601C66.8749 15.7863 62.6347 15.6042 59.105 17.4779C58.7453 17.6733 58.3679 17.2825 58.3679 16.9451V14.5964C58.3679 14.219 58.3724 13.5752 58.7498 13.0024L64.9791 4.06913H59.5578C59.2248 4.06913 58.9584 3.83382 58.9584 3.48749Z" fill="#9AA1FF" fill-opacity="0.5"/>
<path d="M21.1077 17.9484H17.9508C17.6489 17.9262 17.4092 17.6998 17.387 17.4112V1.20965C17.387 0.885534 17.6578 0.628013 17.9952 0.628013H20.939C21.2453 0.641324 21.4895 0.876652 21.5117 1.16969V3.28757H21.5694C22.3376 1.24073 23.7805 0.286133 25.7253 0.286133C27.7011 0.286133 28.9354 1.24073 29.8234 3.28757C30.5871 1.24073 32.3231 0.286133 34.1834 0.286133C35.5066 0.286133 36.954 0.832251 37.8376 2.05769C38.8366 3.42077 38.6323 5.401 38.6323 7.13704L38.6279 17.3623C38.6279 17.6865 38.357 17.9484 38.0196 17.9484H34.8672C34.552 17.9262 34.2989 17.6731 34.2989 17.3623V8.7754C34.2989 8.09164 34.361 6.38668 34.2101 5.73844C33.9748 4.65065 33.2688 4.34428 32.3542 4.34428C31.5905 4.34428 30.7913 4.85488 30.4672 5.67184C30.1431 6.4888 30.1741 7.85632 30.1741 8.7754V17.3623C30.1741 17.6865 29.9033 17.9484 29.5659 17.9484H26.4135C26.0938 17.9262 25.8451 17.6731 25.8451 17.3623L25.8407 8.7754C25.8407 6.96832 26.1382 4.30876 23.896 4.30876C21.6272 4.30876 21.716 6.90172 21.716 8.7754V17.3623C21.716 17.6865 21.4451 17.9484 21.1077 17.9484Z" fill="#9AA1FF" fill-opacity="0.5"/>
<path d="M79.4536 0.286133C84.1378 0.286133 86.673 4.30876 86.673 9.42363C86.673 14.3653 83.8714 18.2859 79.4536 18.2859C74.8538 18.2859 72.3496 14.2632 72.3496 9.25047C72.3496 4.20664 74.8848 0.286133 79.4536 0.286133ZM79.4802 3.59393C77.1537 3.59393 77.0072 6.76408 77.0072 8.73988C77.0072 10.7201 76.9761 14.947 79.4536 14.947C81.9 14.947 82.0155 11.5371 82.0155 9.45915C82.0155 8.09164 81.9578 6.45772 81.5448 5.16124C81.1896 4.03349 80.4837 3.59393 79.4802 3.59393Z" fill="#9AA1FF" fill-opacity="0.5"/>
<path d="M92.747 17.9484H89.6035C89.2883 17.9262 89.0352 17.6731 89.0352 17.3623L89.0308 1.15637C89.0574 0.858891 89.3194 0.628013 89.639 0.628013H92.565C92.8403 0.641324 93.0667 0.827813 93.1289 1.08089V3.55841H93.1866C94.0701 1.34285 95.3089 0.286133 97.4889 0.286133C98.9053 0.286133 100.286 0.796732 101.174 2.19533C102 3.49181 102 5.67184 102 7.23916V17.4378C101.964 17.722 101.702 17.9484 101.392 17.9484H98.226C97.9374 17.9262 97.6976 17.7131 97.6665 17.4378V8.63776C97.6665 6.8662 97.8708 4.27324 95.6907 4.27324C94.9226 4.27324 94.2167 4.78829 93.8659 5.56972C93.4219 6.55984 93.3642 7.54552 93.3642 8.63776V17.3623C93.3598 17.6865 93.0845 17.9484 92.747 17.9484Z" fill="#9AA1FF" fill-opacity="0.5"/>
<path d="M50.6868 10.2096V9.52588C48.4046 9.52588 45.9937 10.0143 45.9937 12.7049C45.9937 14.068 46.6997 14.9915 47.9118 14.9915C48.7998 14.9915 49.5946 14.4454 50.0963 13.5574C50.7179 12.4652 50.6868 11.4395 50.6868 10.2096ZM53.8703 17.9041C53.6616 18.0906 53.3597 18.1039 53.1243 17.9796C52.0765 17.1094 51.89 16.7053 51.3128 15.8751C49.5812 17.6422 48.3558 18.1705 46.1092 18.1705C43.454 18.1705 41.385 16.5322 41.385 13.251C41.385 10.6892 42.7747 8.94424 44.7505 8.09176C46.4644 7.33696 48.8575 7.20377 50.6868 6.99509V6.58661C50.6868 5.83625 50.7445 4.94825 50.305 4.30001C49.9187 3.71837 49.1816 3.47861 48.5334 3.47861C47.3302 3.47861 46.2557 4.09577 45.9937 5.37449C45.9404 5.65865 45.7318 5.93837 45.4476 5.95169L42.384 5.62313C42.1265 5.56541 41.8423 5.35673 41.9134 4.96157C42.6193 1.24974 45.9715 0.130859 48.973 0.130859C50.5092 0.130859 52.5161 0.539339 53.7282 1.70262C55.2644 3.13673 55.1179 5.05037 55.1179 7.13273V12.0522C55.1179 13.5308 55.7306 14.179 56.3078 14.9782C56.5121 15.2623 56.5565 15.6042 56.2989 15.8173C55.6551 16.3546 54.5096 17.3536 53.8791 17.913L53.8703 17.9041Z" fill="#9AA1FF" fill-opacity="0.5"/>
<path d="M9.30178 10.2096V9.52588C7.01962 9.52588 4.60871 10.0143 4.60871 12.7049C4.60871 14.068 5.31467 14.9915 6.52678 14.9915C7.41478 14.9915 8.20954 14.4454 8.71126 13.5574C9.33286 12.4652 9.30178 11.4395 9.30178 10.2096ZM12.4853 17.9041C12.2766 18.0906 11.9747 18.1039 11.7393 17.9796C10.6915 17.1094 10.505 16.7053 9.92782 15.8751C8.19622 17.6422 6.97079 18.1705 4.72415 18.1705C2.06903 18.1705 0 16.5322 0 13.251C0 10.6892 1.38972 8.94424 3.36551 8.09176C5.07935 7.33696 7.4725 7.20377 9.30178 6.99509V6.58661C9.30178 5.83625 9.3595 4.94825 8.91994 4.30001C8.53366 3.71837 7.79662 3.47861 7.14838 3.47861C5.94515 3.47861 4.87067 4.09577 4.60871 5.37449C4.55543 5.65865 4.34675 5.93837 4.06259 5.95169L0.998998 5.62313C0.741478 5.56541 0.457318 5.35673 0.528358 4.96157C1.23432 1.24974 4.58651 0.130859 7.58794 0.130859C9.12418 0.130859 11.1311 0.539339 12.3432 1.70262C13.8794 3.13673 13.7329 5.05037 13.7329 7.13273V12.0522C13.7329 13.5308 14.3456 14.179 14.9228 14.9782C15.127 15.2623 15.1714 15.6042 14.9139 15.8173C14.2701 16.3546 13.1246 17.3536 12.4941 17.913L12.4853 17.9041Z" fill="#9AA1FF" fill-opacity="0.5"/>
</svg>
