<svg width="137" height="35" viewBox="0 0 137 35" fill="none" xmlns="http://www.w3.org/2000/svg">
<g clip-path="url(#clip0_7286_386)">
<mask id="mask0_7286_386" style="mask-type:luminance" maskUnits="userSpaceOnUse" x="0" y="0" width="137" height="35">
<path d="M137 0.5H0V34.5H137V0.5Z" fill="white"/>
</mask>
<g mask="url(#mask0_7286_386)">
<path d="M120.342 11.9478C121.102 11.9478 121.731 11.5357 121.819 11.0015L122.571 2.1027C122.571 1.22503 121.585 0.5 120.342 0.5C119.099 0.5 118.12 1.22503 118.12 2.1027L118.873 11.0015C118.953 11.5281 119.582 11.9478 120.342 11.9478ZM115.737 14.7258C116.117 14.0389 116.088 13.2605 115.686 12.9171L108.684 7.78844C107.953 7.34579 106.864 7.88002 106.242 9.0019C105.621 10.1238 105.731 11.3754 106.454 11.8104L114.209 15.5806C114.699 15.7714 115.357 15.405 115.737 14.7258ZM124.947 14.7182C125.327 15.405 125.985 15.7714 126.475 15.5806L134.23 11.8104C134.961 11.3678 135.063 10.1162 134.449 9.0019C133.828 7.88002 132.731 7.35343 132.008 7.78844L125.005 12.9171C124.603 13.2605 124.574 14.0389 124.947 14.7182ZM120.342 23.0598C121.102 23.0598 121.731 23.4719 121.819 24.0062L122.571 32.8974C122.571 33.7826 121.585 34.5 120.342 34.5C119.099 34.5 118.12 33.7826 118.12 32.8974L118.873 24.0062C118.953 23.4719 119.582 23.0598 120.342 23.0598ZM124.947 20.2818C125.327 19.595 125.985 19.2363 126.475 19.4195L134.23 23.1896C134.961 23.6322 135.063 24.8839 134.449 26.0057C133.828 27.12 132.731 27.6543 132.008 27.2192L125.005 22.0982C124.603 21.7395 124.574 20.9686 124.947 20.2818ZM115.737 20.2742C116.117 20.961 116.088 21.7395 115.686 22.0829L108.684 27.2039C107.953 27.6465 106.864 27.1124 106.242 25.9904C105.621 24.8686 105.731 23.6169 106.454 23.1743L114.209 19.4042C114.699 19.2286 115.357 19.5873 115.737 20.2742Z" fill="#9AA1FF" fill-opacity="0.5"/>
<path d="M76.1712 22.0677C76.1712 22.3424 76.1493 22.6248 76.0762 22.869C75.7765 23.8993 74.7604 24.7617 73.4886 24.7617C72.4287 24.7617 71.5808 24.1282 71.5808 22.8004C71.5808 20.7627 73.7299 20.1978 76.1712 20.2131V22.0677ZM80.0014 18.5188C80.0014 15.1608 78.6272 12.2073 73.9857 12.2073C71.6028 12.2073 69.7097 12.9094 68.679 13.5276L69.4319 16.2292C70.3748 15.6035 71.8806 15.0921 73.306 15.0921C75.6595 15.0845 76.0469 16.4887 76.0469 17.3817V17.5954C70.9157 17.5877 67.6631 19.4422 67.6631 23.2277C67.6631 25.5401 69.3149 27.7001 72.1876 27.7001C73.9565 27.7001 75.433 26.9674 76.3174 25.7845H76.4051C76.4051 25.7845 76.9898 28.3487 80.2206 27.3642C80.0526 26.2957 79.994 25.1586 79.994 23.7925L80.0014 18.5188ZM0 7.63581C0 7.63581 3.35501 21.9913 3.8886 24.3191C4.51721 27.036 5.64285 28.0435 8.88823 27.3642L10.986 18.4655C11.5196 16.2523 11.8705 14.68 12.214 12.4286H12.2725C12.5137 14.7029 12.8572 16.2598 13.2885 18.4731C13.2885 18.4731 14.1437 22.5103 14.5749 24.632C15.0135 26.7536 16.2342 28.0892 19.4138 27.3642L24.406 7.63581H20.3785L18.6755 16.1682C18.215 18.6487 17.7984 20.5947 17.4841 22.8614H17.4256C17.1333 20.61 16.7604 18.7479 16.3 16.3285L14.5238 7.63581H10.3282L8.42773 16.1072C7.88683 18.6868 7.38979 20.7627 7.06819 22.9531H7.0097C6.68078 20.8848 6.24222 18.2747 5.77441 15.779C5.77441 15.779 4.64877 9.71931 4.25406 7.62817L0 7.63581ZM32.0297 22.0677C32.0297 22.3424 32.0079 22.6248 31.9347 22.869C31.6351 23.8993 30.619 24.7617 29.3472 24.7617C28.2873 24.7617 27.4394 24.1282 27.4394 22.8004C27.4394 20.7627 29.5884 20.1978 32.0297 20.2131V22.0677ZM35.8672 18.5188C35.8672 15.1608 34.493 12.2073 29.8515 12.2073C27.4686 12.2073 25.5756 12.9094 24.545 13.5276L25.2979 16.2292C26.2408 15.6035 27.7464 15.0921 29.1718 15.0921C31.5327 15.0845 31.9129 16.4887 31.9129 17.3817V17.5954C26.7743 17.5877 23.5289 19.4422 23.5289 23.2277C23.5289 25.5401 25.1809 27.7001 28.0534 27.7001C29.8223 27.7001 31.2988 26.9674 32.1833 25.7845H32.271C32.271 25.7845 32.8558 28.3487 36.0938 27.3642C35.9256 26.2957 35.8672 25.1586 35.8672 23.7925V18.5188ZM42.263 23.1744V7.63581H38.4255V27.3642H42.263V23.1744ZM92.4711 7.63581V22.1898C92.4711 24.197 92.8366 25.6012 93.6041 26.4637C94.2839 27.2191 95.3949 27.7001 96.7252 27.7001C97.8582 27.7001 98.9765 27.471 99.5028 27.2726L99.4516 24.1435C99.0569 24.2427 98.6111 24.3267 97.997 24.3267C96.6887 24.3267 96.2502 23.449 96.2502 21.6479V16.0767H99.5906V12.2989H96.2502V7.63581H92.4711ZM82.5597 12.5431V27.3642H86.5214V19.7781C86.5214 19.3661 86.5432 19.0074 86.609 18.6868C86.9014 17.0993 88.0636 16.0843 89.7374 16.0843C90.1979 16.0843 90.5269 16.1378 90.8777 16.1911V12.3141C90.5781 12.2531 90.3733 12.2226 90.0079 12.2226C88.5314 12.2226 86.8502 13.2147 86.1412 15.3516H86.0316V12.5584H82.5597M44.9455 12.5431V27.3642H48.8048V18.6715C48.8048 18.2671 48.8486 17.832 48.9876 17.458C49.3092 16.5804 50.084 15.5577 51.3339 15.5577C52.8907 15.5577 53.6216 16.9315 53.6216 18.9157V27.3642H57.4738V18.5646C57.4738 18.1754 57.5249 17.7099 57.6345 17.3664C57.9489 16.3744 58.7894 15.5577 59.9516 15.5577C61.5305 15.5577 62.2834 16.9085 62.2834 19.244V27.3642H66.1427V18.6334C66.1427 14.0313 63.906 12.2073 61.3771 12.2073C60.2586 12.2073 59.3741 12.4973 58.5774 13.0087C57.9051 13.4437 57.3056 14.0542 56.7794 14.8556H56.7209C56.1143 13.2605 54.6743 12.2073 52.8103 12.2073C50.4128 12.2073 49.3311 13.4742 48.6732 14.5579H48.6074V12.5431H44.9455Z" fill="#9AA1FF" fill-opacity="0.5"/>
<path d="M136.174 26.6464H136.233C136.313 26.6464 136.357 26.6158 136.357 26.5624C136.357 26.509 136.313 26.4785 136.24 26.4785C136.218 26.4785 136.189 26.4861 136.174 26.4861V26.6464ZM136.167 27.0432H135.962V26.3487C136.006 26.3411 136.116 26.3258 136.255 26.3258C136.408 26.3258 136.474 26.3487 136.525 26.3793C136.569 26.4097 136.598 26.4632 136.598 26.5318C136.598 26.6006 136.533 26.6617 136.445 26.6921V26.6998C136.518 26.7227 136.562 26.776 136.584 26.883C136.606 26.9822 136.62 27.0279 136.628 27.0508H136.394C136.372 27.0279 136.364 26.9669 136.35 26.8983C136.335 26.8295 136.306 26.7913 136.233 26.7913H136.167V27.0432ZM136.247 26.1198C135.955 26.1198 135.728 26.3716 135.728 26.6921C135.728 27.0051 135.948 27.257 136.255 27.257C136.554 27.2645 136.781 27.0051 136.781 26.6845C136.781 26.3716 136.562 26.1198 136.247 26.1198ZM136.262 25.929C136.671 25.929 137 26.2648 137 26.6845C137 27.1043 136.671 27.4401 136.255 27.4401C135.838 27.4401 135.509 27.1043 135.509 26.6845C135.509 26.2648 135.838 25.929 136.262 25.929Z" fill="#9AA1FF" fill-opacity="0.5"/>
</g>
</g>
<defs>
<clipPath id="clip0_7286_386">
<rect width="137" height="34" fill="white" transform="translate(0 0.5)"/>
</clipPath>
</defs>
</svg>
