<svg width="82" height="77" viewBox="0 0 82 77" fill="none" xmlns="http://www.w3.org/2000/svg">
<path d="M38.6477 16.1309C28.4394 16.1309 20.1641 24.4046 20.1641 34.611V50.4096H30.3297V34.611C30.3297 30.0201 34.052 26.2946 38.6477 26.2946C43.2434 26.2946 46.9657 30.0162 46.9657 34.611V50.4096H57.1313V34.611C57.1313 24.4046 48.856 16.1309 38.6477 16.1309Z" fill="black"/>
<path d="M0 21.8912C0 9.80009 9.97202 0 22.2753 0H77.9673V7.29834H22.2753C14.0731 7.29834 7.42248 13.8305 7.42248 21.895V67.5049L24.1699 60.0993C25.3667 59.5706 26.6648 59.2947 27.9786 59.2947H55.6881C63.8903 59.2947 70.5409 52.7588 70.5409 44.698V29.1895H77.9673V43.7862C77.9673 55.8773 67.9953 65.6774 55.692 65.6774H29.6354C28.4542 65.6774 27.2846 65.8996 26.1892 66.3287L0.0038992 76.623V21.8912H0Z" fill="black"/>
<path d="M72.9206 9.88361C73.1558 9.25234 74.0459 9.25234 74.2772 9.88361L76.1201 14.8632C76.1946 15.0632 76.3475 15.2161 76.5475 15.2906L81.5271 17.1335C82.1584 17.3648 82.1584 18.2588 81.5271 18.4901L76.5475 20.333C76.3514 20.4075 76.1946 20.5643 76.1201 20.7604L74.2772 25.74C74.0459 26.3713 73.1558 26.3713 72.9206 25.74L71.0777 20.7604C71.0032 20.5643 70.8503 20.4075 70.6503 20.333L65.6707 18.4901C65.0394 18.2588 65.0394 17.3648 65.6707 17.1335L70.6503 15.2906C70.8503 15.2161 71.0032 15.0632 71.0777 14.8632L72.9206 9.88361Z" fill="black"/>
<path d="M34.9512 38.3116C34.9512 36.8242 36.1938 35.623 37.7237 35.623H39.5721C41.1059 35.623 42.3446 36.828 42.3446 38.3116C42.3446 39.7952 41.102 41.0001 39.5721 41.0001H37.7237C36.1899 41.0001 34.9512 39.7952 34.9512 38.3116Z" fill="black"/>
</svg>
