<svg width="121" height="37" viewBox="0 0 121 37" fill="none" xmlns="http://www.w3.org/2000/svg">
<g clip-path="url(#clip0_7286_400)">
<mask id="mask0_7286_400" style="mask-type:luminance" maskUnits="userSpaceOnUse" x="0" y="0" width="121" height="37">
<path d="M121 0.5H0V36.5H121V0.5Z" fill="white"/>
</mask>
<g mask="url(#mask0_7286_400)">
<path d="M18.1465 0.5C8.12526 0.5 0 8.56055 0 18.5019C0 28.4435 8.12526 36.5041 18.1465 36.5041C28.1679 36.5041 36.293 28.4435 36.293 18.5019C36.289 8.56055 28.1679 0.5 18.1465 0.5ZM26.4671 26.4617C26.1416 26.9904 25.4458 27.16 24.9128 26.833C20.6529 24.2498 15.2903 23.6645 8.97155 25.0975C8.36124 25.2346 7.755 24.8593 7.61666 24.2539C7.47833 23.6483 7.85673 23.047 8.46704 22.9097C15.3799 21.3435 21.3079 22.0217 26.0927 24.9198C26.6257 25.2426 26.7926 25.933 26.4671 26.4617ZM28.6886 21.5615C28.2777 22.2234 27.407 22.4294 26.7437 22.0217C21.8694 19.0469 14.4318 18.1873 8.66233 19.9227C7.91369 20.1488 7.12434 19.7291 6.8965 18.9865C6.67273 18.2437 7.0918 17.4606 7.84045 17.2346C14.4318 15.2528 22.6222 16.2134 28.2248 19.6282C28.888 20.0399 29.0955 20.9036 28.6886 21.5615ZM28.8798 16.4557C23.029 13.0126 13.3821 12.6937 7.79975 14.3769C6.90464 14.6473 5.95662 14.1428 5.68402 13.2548C5.41141 12.3668 5.92 11.4263 6.81513 11.1559C13.2234 9.22653 23.8794 9.59788 30.6132 13.5656C31.4187 14.0419 31.6832 15.0752 31.2071 15.8744C30.727 16.6695 29.6815 16.9319 28.8798 16.4557ZM49.3659 17.1176C46.233 16.3749 45.6755 15.8541 45.6755 14.7644C45.6755 13.7311 46.6561 13.0368 48.1128 13.0368C49.5245 13.0368 50.9283 13.5656 52.393 14.6514C52.4378 14.6837 52.4948 14.6958 52.5477 14.6877C52.6005 14.6796 52.6494 14.6514 52.6819 14.6029L54.2118 12.4637C54.2727 12.3749 54.2566 12.2538 54.1711 12.1852C52.4216 10.7926 50.4564 10.1186 48.1535 10.1186C44.7723 10.1186 42.4084 12.1327 42.4084 15.0146C42.4084 18.1064 44.4468 19.2003 47.9703 20.0439C50.969 20.73 51.4736 21.3032 51.4736 22.3285C51.4736 23.4667 50.4523 24.173 48.8044 24.173C46.9776 24.173 45.4844 23.5635 43.8162 22.1267C43.7755 22.0903 43.7185 22.0742 43.6656 22.0783C43.6087 22.0823 43.5598 22.1064 43.5232 22.1509L41.8063 24.1771C41.7331 24.2618 41.7452 24.387 41.8265 24.4597C43.7674 26.1791 46.1558 27.0873 48.7312 27.0873C52.3768 27.0873 54.7325 25.1094 54.7325 22.0539C54.7407 19.4708 53.1824 18.0419 49.3659 17.1217V17.1176ZM62.9881 14.054C61.4093 14.054 60.1114 14.6715 59.0454 15.9348V14.5101C59.0454 14.3971 58.9518 14.3042 58.842 14.3042H56.0386C55.9247 14.3042 55.8351 14.3971 55.8351 14.5101V30.3325C55.8351 30.4455 55.9288 30.5384 56.0386 30.5384H58.842C58.9559 30.5384 59.0454 30.4455 59.0454 30.3325V25.3396C60.1155 26.5303 61.4093 27.1115 62.9881 27.1115C65.9256 27.1115 68.8959 24.8714 68.8959 20.5847C68.9 16.2941 65.9256 14.054 62.9881 14.054ZM65.6327 20.5808C65.6327 22.7644 64.2778 24.2861 62.3371 24.2861C60.4206 24.2861 58.9722 22.6958 58.9722 20.5808C58.9722 18.4697 60.4206 16.8753 62.3371 16.8753C64.2453 16.8753 65.6327 18.4334 65.6327 20.5808ZM76.5125 14.054C72.7327 14.054 69.7706 16.944 69.7706 20.6291C69.7706 24.278 72.7122 27.1358 76.4678 27.1358C80.2638 27.1358 83.2341 24.2577 83.2341 20.5847C83.23 16.9198 80.2802 14.054 76.5125 14.054ZM76.5125 24.3102C74.5026 24.3102 72.9849 22.7078 72.9849 20.5808C72.9849 18.4456 74.4496 16.8997 76.4637 16.8997C78.4859 16.8997 80.0156 18.502 80.0156 20.6291C80.0156 22.7603 78.5428 24.3102 76.5125 24.3102ZM91.3064 14.3083H88.2182V11.1761C88.2182 11.0631 88.1287 10.9743 88.0148 10.9743H85.2114C85.0975 10.9743 85.0039 11.0671 85.0039 11.1761V14.3083H83.6531C83.5392 14.3083 83.4496 14.4011 83.4496 14.5141V16.9076C83.4496 17.0207 83.5392 17.1136 83.6531 17.1136H85.0039V23.3012C85.0039 25.8038 86.2571 27.0711 88.7349 27.0711C89.74 27.0711 90.578 26.8653 91.3633 26.4213C91.4285 26.3849 91.4651 26.3164 91.4651 26.2438V23.9672C91.4651 23.8987 91.4285 23.83 91.3674 23.7937C91.3064 23.7574 91.2292 23.7533 91.1681 23.7855C90.6269 24.056 90.1061 24.1811 89.5202 24.1811C88.621 24.1811 88.2182 23.7775 88.2182 22.8653V17.1095H91.3064C91.4203 17.1095 91.5099 17.0166 91.5099 16.9037V14.5101C91.514 14.4011 91.4244 14.3083 91.3064 14.3083ZM102.06 14.3204V13.9369C102.06 12.8068 102.495 12.3022 103.476 12.3022C104.062 12.3022 104.53 12.4193 105.055 12.5928C105.12 12.613 105.189 12.6049 105.238 12.5646C105.291 12.5242 105.323 12.4637 105.323 12.3991V10.054C105.323 9.96518 105.266 9.88447 105.177 9.86024C104.619 9.69476 103.911 9.52926 102.845 9.52926C100.254 9.52926 98.8865 10.9783 98.8865 13.7149V14.3042H97.5398C97.4257 14.3042 97.3323 14.3971 97.3323 14.5061V16.9116C97.3323 17.0247 97.4257 17.1176 97.5398 17.1176H98.8865V26.6635C98.8865 26.7766 98.9759 26.8693 99.0899 26.8693H101.893C102.007 26.8693 102.101 26.7766 102.101 26.6635V17.1054H104.721L108.733 26.6474C108.277 27.6484 107.829 27.8501 107.219 27.8501C106.727 27.8501 106.206 27.7049 105.673 27.4142C105.624 27.386 105.563 27.382 105.51 27.3982C105.457 27.4183 105.413 27.4545 105.388 27.507L104.436 29.5776C104.391 29.6745 104.428 29.7917 104.526 29.84C105.519 30.3728 106.414 30.6029 107.52 30.6029C109.591 30.6029 110.739 29.6463 111.748 27.0711L116.614 14.5949C116.638 14.5303 116.63 14.4617 116.594 14.4051C116.557 14.3486 116.492 14.3164 116.427 14.3164H113.505C113.416 14.3164 113.339 14.3729 113.31 14.4536L110.32 22.9298L107.044 14.4455C107.016 14.3648 106.938 14.3164 106.853 14.3164L102.06 14.3204ZM95.8267 14.3083H93.0234C92.9096 14.3083 92.8159 14.4011 92.8159 14.5141V26.6553C92.8159 26.7684 92.9096 26.8613 93.0234 26.8613H95.8267C95.9408 26.8613 96.0342 26.7684 96.0342 26.6553V14.5101C96.0342 14.4576 96.014 14.4051 95.9733 14.3648C95.9326 14.3285 95.8796 14.3083 95.8267 14.3083ZM94.4393 8.7785C93.3285 8.7785 92.4252 9.67054 92.4252 10.7724C92.4252 11.8744 93.3285 12.7704 94.4393 12.7704C95.5501 12.7704 96.4493 11.8784 96.4493 10.7724C96.4493 9.67054 95.5501 8.7785 94.4393 8.7785ZM119.014 18.2114C117.904 18.2114 117.041 17.3274 117.041 16.2537C117.041 15.1801 117.916 14.2841 119.027 14.2841C120.137 14.2841 121 15.168 121 16.2418C121 17.3153 120.121 18.2114 119.014 18.2114ZM119.027 14.4778C118.014 14.4778 117.249 15.277 117.249 16.2537C117.249 17.2305 118.009 18.0176 119.014 18.0176C120.024 18.0176 120.792 17.2225 120.792 16.2418C120.792 15.2649 120.032 14.4778 119.027 14.4778ZM119.462 16.4435L120.019 17.2184H119.547L119.043 16.508H118.612V17.2184H118.217V15.164H119.141C119.621 15.164 119.938 15.4102 119.938 15.8179C119.946 16.1568 119.747 16.3628 119.462 16.4435ZM119.128 15.5152H118.616V16.165H119.128C119.385 16.165 119.539 16.0399 119.539 15.8381C119.539 15.6281 119.385 15.5152 119.128 15.5152Z" fill="#9AA1FF" fill-opacity="0.5"/>
</g>
</g>
<defs>
<clipPath id="clip0_7286_400">
<rect width="121" height="36" fill="white" transform="translate(0 0.5)"/>
</clipPath>
</defs>
</svg>
