<svg width="82" height="77" viewBox="0 0 82 77" fill="none" xmlns="http://www.w3.org/2000/svg">
<path d="M38.6477 16.1313C28.4394 16.1313 20.1641 24.4051 20.1641 34.6115V50.4101H30.3297V34.6115C30.3297 30.0206 34.052 26.295 38.6477 26.295C43.2434 26.295 46.9657 30.0167 46.9657 34.6115V50.4101H57.1313V34.6115C57.1313 24.4051 48.856 16.1313 38.6477 16.1313Z" fill="white"/>
<path d="M0 21.8912C0 9.80009 9.97202 0 22.2753 0H77.9673V7.29834H22.2753C14.0731 7.29834 7.42248 13.8305 7.42248 21.895V67.5049L24.1699 60.0993C25.3667 59.5706 26.6648 59.2947 27.9786 59.2947H55.6881C63.8903 59.2947 70.5409 52.7588 70.5409 44.698V29.1895H77.9673V43.7862C77.9673 55.8773 67.9953 65.6774 55.692 65.6774H29.6354C28.4542 65.6774 27.2846 65.8996 26.1892 66.3287L0.0038992 76.623V21.8912H0Z" fill="white"/>
<path d="M72.9201 9.88361C73.1554 9.25234 74.0454 9.25234 74.2767 9.88361L76.1196 14.8632C76.1941 15.0632 76.347 15.2161 76.547 15.2906L81.5266 17.1335C82.1579 17.3648 82.1579 18.2588 81.5266 18.4901L76.547 20.333C76.3509 20.4075 76.1941 20.5643 76.1196 20.7604L74.2767 25.74C74.0454 26.3713 73.1554 26.3713 72.9201 25.74L71.0772 20.7604C71.0027 20.5643 70.8498 20.4075 70.6499 20.333L65.6702 18.4901C65.039 18.2588 65.039 17.3648 65.6702 17.1335L70.6499 15.2906C70.8498 15.2161 71.0027 15.0632 71.0772 14.8632L72.9201 9.88361Z" fill="white"/>
<path d="M34.9509 38.3116C34.9509 36.8242 36.1935 35.623 37.7235 35.623H39.5718C41.1057 35.623 42.3444 36.828 42.3444 38.3116C42.3444 39.7952 41.1018 41.0001 39.5718 41.0001H37.7235C36.1896 41.0001 34.9509 39.7952 34.9509 38.3116Z" fill="white"/>
</svg>
