<svg width="118" height="37" viewBox="0 0 118 37" fill="none" xmlns="http://www.w3.org/2000/svg">
<g clip-path="url(#clip0_7286_376)">
<mask id="mask0_7286_376" style="mask-type:luminance" maskUnits="userSpaceOnUse" x="0" y="0" width="118" height="37">
<path d="M118 0H0V37H118V0Z" fill="white"/>
</mask>
<g mask="url(#mask0_7286_376)">
<mask id="mask1_7286_376" style="mask-type:luminance" maskUnits="userSpaceOnUse" x="0" y="0" width="118" height="37">
<path d="M118 0H0V37H118V0Z" fill="white"/>
</mask>
<g mask="url(#mask1_7286_376)">
<path d="M62.1749 9.29743C62.1749 10.632 61.1049 11.7072 59.777 11.7072C58.449 11.7072 57.3791 10.632 57.3791 9.29743C57.3791 7.9629 58.4113 6.8877 59.777 6.8877C61.1428 6.92565 62.1749 8.00085 62.1749 9.29743ZM52.3002 14.1485V14.7431C52.3002 14.7431 51.161 13.2631 48.7254 13.2631C44.71 13.2631 41.5758 16.337 41.5758 20.5935C41.5758 24.8184 44.6722 27.9239 48.7254 27.9239C51.1925 27.9239 52.3002 26.406 52.3002 26.406V27.0384C52.3002 27.3357 52.5204 27.5572 52.8163 27.5572H55.7995V13.6299H52.8163C52.5204 13.6299 52.3002 13.8892 52.3002 14.1485ZM52.3002 23.0728C51.7463 23.8887 50.6449 24.5908 49.317 24.5908C46.9569 24.5908 45.1506 23.1108 45.1506 20.5872C45.1506 18.0699 46.9569 16.5899 49.317 16.5899C50.6072 16.5899 51.7841 17.3299 52.3002 18.1078V23.0728ZM58.0084 13.6299H61.5455V27.5572H58.0084V13.6299ZM110.856 13.2567C108.427 13.2567 107.282 14.7367 107.282 14.7367V6.92565H103.745V27.5572H106.728C107.024 27.5572 107.244 27.2977 107.244 27.0384V26.4124C107.244 26.4124 108.389 27.9303 110.819 27.9303C114.834 27.9303 117.968 24.8184 117.968 20.5998C117.968 16.3685 114.84 13.2567 110.856 13.2567ZM110.271 24.5528C108.905 24.5528 107.842 23.8508 107.288 23.0349V18.0699C107.842 17.3299 109.019 16.552 110.271 16.552C112.631 16.552 114.438 18.032 114.438 20.5492C114.431 23.0728 112.631 24.5528 110.271 24.5528ZM101.901 19.297V27.595H98.3636V19.7018C98.3636 17.4058 97.6271 16.4825 95.6383 16.4825C94.5684 16.4825 93.467 17.0389 92.7621 17.8549V27.5572H89.225V13.6299H92.0258C92.3215 13.6299 92.5419 13.8892 92.5419 14.1485V14.7431C93.5741 13.6679 94.9398 13.2631 96.2991 13.2631C97.8475 13.2631 99.1376 13.7058 100.17 14.5976C101.422 15.6285 101.901 16.963 101.901 19.297ZM80.6405 13.2567C78.2112 13.2567 77.0657 14.7367 77.0657 14.7367V6.92565H73.5287V27.5572H76.5119C76.8076 27.5572 77.028 27.2977 77.028 27.0384V26.4124C77.028 26.4124 78.1735 27.9303 80.6028 27.9303C84.6182 27.9303 87.7524 24.8184 87.7524 20.5998C87.7902 16.3685 84.6559 13.2567 80.6405 13.2567ZM80.0489 24.5528C78.6832 24.5528 77.6196 23.8508 77.0657 23.0349V18.0699C77.6196 17.3299 78.7965 16.552 80.0489 16.552C82.4091 16.552 84.2154 18.032 84.2154 20.5492C84.2154 23.0728 82.4091 24.5528 80.0489 24.5528ZM70.4636 13.2567C71.5336 13.2567 72.0875 13.4402 72.0875 13.4402V16.7354C72.0875 16.7354 69.142 15.7361 67.298 17.8485V27.5887H63.7609V13.6299H66.7441C67.0399 13.6299 67.2602 13.8892 67.2602 14.1485V14.7431C67.921 13.9651 69.3623 13.2567 70.4636 13.2567ZM33.7212 26.2984C33.5388 25.8557 33.3498 25.375 33.1674 24.9639C32.8716 24.2998 32.5758 23.6674 32.3178 23.0728L32.28 23.0349C29.7374 17.4818 27.0122 11.8527 24.136 6.29317L24.0227 6.07179C23.7206 5.49625 23.4249 4.91435 23.1415 4.33248C22.7703 3.66837 22.4052 2.96 21.8136 2.29589C20.643 0.815897 18.9437 0 17.1374 0C15.2933 0 13.6381 0.815897 12.4235 2.22C11.8696 2.88411 11.4668 3.59248 11.0955 4.25658C10.806 4.83846 10.5165 5.42034 10.2144 5.99589L10.1011 6.21726C7.26265 11.7704 4.49974 17.3995 1.95709 22.9589L1.91933 23.0349C1.66129 23.6294 1.36548 24.2556 1.06968 24.926C0.887163 25.3308 0.704647 25.7798 0.515838 26.2605C0.0375186 27.6329 -0.113529 28.9296 0.0752806 30.2641C0.478075 33.0407 2.32212 35.3745 4.86477 36.4118C5.82139 36.8166 6.8158 37.0064 7.84796 37.0064C8.14377 37.0064 8.5088 36.9683 8.8046 36.9304C10.0193 36.785 11.2717 36.3738 12.4927 35.6718C14.0032 34.8179 15.4382 33.5973 17.0619 31.82C18.6857 33.5973 20.1583 34.8179 21.6311 35.6718C22.8458 36.3738 24.0982 36.785 25.3192 36.9304C25.6149 36.9683 25.9863 37.0064 26.2759 37.0064C27.3079 37.0064 28.3401 36.8228 29.2591 36.4118C31.8394 35.3745 33.6457 33.0027 34.0485 30.2641C34.3506 28.9612 34.1996 27.6646 33.7212 26.2984ZM17.0996 28.2212C15.1109 25.7039 13.8207 23.3322 13.3801 21.3335C13.1976 20.4796 13.1598 19.7396 13.2668 19.0756C13.3423 18.4811 13.5626 17.9625 13.8584 17.5196C14.557 16.5204 15.7403 15.8878 17.0996 15.8878C18.4653 15.8878 19.6801 16.4825 20.3409 17.5196C20.6367 17.9625 20.857 18.4811 20.9325 19.0756C21.0458 19.7396 21.0081 20.5175 20.8193 21.3335C20.3849 23.2942 19.0947 25.666 17.0996 28.2212ZM31.808 29.9605C31.5499 31.8832 30.2597 33.5529 28.4534 34.2929C27.5661 34.6598 26.6094 34.7736 25.6527 34.6598C24.7339 34.546 23.8086 34.255 22.8521 33.6984C21.5242 32.9584 20.1961 31.8074 18.6479 30.106C21.0772 27.108 22.5562 24.363 23.1101 21.9218C23.3682 20.7706 23.406 19.7333 23.2927 18.772C23.1479 17.8485 22.8144 16.9947 22.2983 16.2547C21.1528 14.585 19.2395 13.6236 17.0996 13.6236C14.9598 13.6236 13.0465 14.6229 11.9011 16.2547C11.385 16.9947 11.0514 17.8485 10.9067 18.772C10.7619 19.7333 10.7934 20.8085 11.0892 21.9218C11.643 24.363 13.1535 27.146 15.5451 30.1439C14.0346 31.8453 12.6689 32.9965 11.3409 33.7365C10.3843 34.2929 9.45914 34.5903 8.54026 34.6977C7.54586 34.8117 6.58922 34.6598 5.73958 34.331C3.93329 33.591 2.64309 31.9212 2.38506 29.9984C2.27178 29.075 2.3473 28.1453 2.71861 27.108C2.82561 26.7349 3.01443 26.368 3.19694 25.9253C3.45498 25.3308 3.75079 24.7046 4.04659 24.0722L4.08435 23.9963C6.627 18.4747 9.35215 12.8456 12.1906 7.36837L12.3039 7.14701C12.5997 6.59043 12.8955 6.00223 13.1913 5.44565C13.4871 4.85111 13.8207 4.29453 14.2235 3.81384C14.9976 2.92837 16.0298 2.44136 17.1689 2.44136C18.3143 2.44136 19.3401 2.92205 20.1144 3.81384C20.5172 4.29453 20.8507 4.85111 21.1464 5.44565C21.4423 6.00223 21.738 6.59675 22.0339 7.14701L22.1472 7.36837C24.9416 12.8709 27.6352 18.4304 30.2156 24.0342V24.0722C30.5115 24.6667 30.7695 25.3308 31.0654 25.9253C31.2478 26.368 31.4366 26.7412 31.5435 27.108C31.8458 28.0757 31.9527 28.9991 31.808 29.9605Z" fill="#9AA1FF" fill-opacity="0.5"/>
</g>
</g>
</g>
<defs>
<clipPath id="clip0_7286_376">
<rect width="118" height="37" fill="white"/>
</clipPath>
</defs>
</svg>
