<svg width="15" height="15" viewBox="0 0 15 15" fill="none" xmlns="http://www.w3.org/2000/svg">
<path d="M3.70599 14.1475V5.17668H0.726869V14.1475H3.7063H3.70599ZM2.21705 3.95208C3.25571 3.95208 3.90235 3.26322 3.90235 2.40235C3.88291 1.52186 3.25571 0.852234 2.2368 0.852234C1.21719 0.852234 0.55127 1.52186 0.55127 2.40227C0.55127 3.26315 1.19767 3.952 2.19753 3.952H2.21682L2.21705 3.95208ZM5.35497 14.1475H8.33385V9.13833C8.33385 8.87057 8.3533 8.60212 8.432 8.41087C8.64726 7.87497 9.13743 7.32023 9.9606 7.32023C11.0383 7.32023 11.4697 8.1428 11.4697 9.34888V14.1475H14.4485V9.00391C14.4485 6.24857 12.979 4.96637 11.019 4.96637C9.4121 4.96637 8.70636 5.8653 8.31426 6.47757H8.33409V5.17699H5.35512C5.39401 6.01856 5.35489 14.1478 5.35489 14.1478L5.35497 14.1475Z" fill="white"/>
</svg>
