<svg width="17" height="15" viewBox="0 0 17 15" fill="none" xmlns="http://www.w3.org/2000/svg">
<path d="M1.04224 6.53254C1.04224 6.53254 8.56093 3.23976 11.1685 2.08029C12.1682 1.61654 15.5581 0.132411 15.5581 0.132411C15.5581 0.132411 17.1227 -0.516838 16.9923 1.05997C16.9488 1.70929 16.6011 3.98175 16.2535 6.43979C15.7319 9.91813 15.1669 13.7211 15.1669 13.7211C15.1669 13.7211 15.08 14.7878 14.3412 14.9733C13.6024 15.1588 12.3854 14.324 12.1682 14.1385C11.9943 13.9994 8.9086 11.9123 7.77863 10.892C7.47439 10.6138 7.12673 10.0573 7.82206 9.40797C9.38667 7.8775 11.2555 5.97604 12.3854 4.77023C12.907 4.21366 13.4285 2.9151 11.2555 4.49191C8.16978 6.76444 5.12754 8.89782 5.12754 8.89782C5.12754 8.89782 4.43215 9.36157 3.12835 8.94416C1.82449 8.52682 0.303364 7.97025 0.303364 7.97025C0.303364 7.97025 -0.73963 7.2746 1.04224 6.53254Z" fill="white"/>
</svg>
